<svg xmlns="http://www.w3.org/2000/svg" fill="#163152" height="80" width="80"><g transform="scale(0.19224577)"><path d="m 35.067,208.066 c 0,-3.866 0.127,-7.696 0.378,-11.5 H 11.225 C 5.036,196.566 0,201.603 0,207.792 v 0.55 c 0,6.189 5.036,11.224 11.225,11.224 h 24.22 c -0.251,-3.803 -0.378,-7.634 -0.378,-11.5 z" /><path d="m 316.448,43.347 c 3.094,-5.36 1.251,-12.239 -4.1,-15.328 l -0.486,-0.28 c -1.733,-1.001 -3.613,-1.509 -5.587,-1.509 -4.011,0 -7.746,2.152 -9.746,5.617 l -12.12,20.992 c 6.907,3.409 13.549,7.264 19.9,11.532 z" /><path d="M 219.567,35.445 V 11.225 C 219.567,5.035 214.531,0 208.342,0 h -0.55 c -6.189,0 -11.225,5.035 -11.225,11.225 v 24.22 c 3.804,-0.251 7.634,-0.378 11.5,-0.378 3.866,0 7.696,0.127 11.5,0.378 z" /><path d="m 111.826,64.37 c 6.351,-4.267 12.993,-8.123 19.9,-11.533 l -12.12,-20.991 c -2.001,-3.465 -5.735,-5.617 -9.747,-5.617 -1.974,0 -3.853,0.508 -5.603,1.518 l -0.46,0.266 c -5.36,3.094 -7.204,9.973 -4.109,15.334 z" /><path d="m 31.847,119.604 20.992,12.121 c 3.41,-6.907 7.266,-13.548 11.533,-19.899 L 43.347,99.687 c -1.733,-1.001 -3.613,-1.509 -5.587,-1.509 -4.011,0 -7.746,2.152 -9.744,5.613 l -0.277,0.48 c -1.499,2.597 -1.898,5.622 -1.122,8.518 0.776,2.895 2.633,5.316 5.23,6.815 z" /><path d="m 31.846,296.529 c -2.596,1.499 -4.453,3.92 -5.229,6.816 -0.776,2.896 -0.378,5.921 1.117,8.51 l 0.279,0.483 c 2.001,3.465 5.736,5.617 9.748,5.617 1.974,0 3.854,-0.507 5.586,-1.508 l 21.024,-12.138 c -4.267,-6.351 -8.123,-12.993 -11.533,-19.9 z" /><path d="m 99.686,372.786 c -3.095,5.36 -1.252,12.239 4.113,15.337 l 0.472,0.272 c 1.733,1.001 3.613,1.509 5.587,1.509 4.012,0 7.747,-2.153 9.747,-5.618 l 12.119,-20.991 c -6.906,-3.41 -13.549,-7.265 -19.9,-11.533 z" /><path d="m 196.567,380.688 v 24.22 c 0,6.19 5.036,11.226 11.225,11.226 h 0.55 c 6.189,0 11.225,-5.037 11.225,-11.226 v -24.22 c -3.804,0.251 -7.634,0.378 -11.5,0.378 -3.866,0 -7.696,-0.127 -11.5,-0.378 z" /><path d="m 304.309,351.762 c -6.351,4.267 -12.993,8.123 -19.9,11.532 l 12.121,20.993 c 2,3.465 5.734,5.617 9.746,5.617 1.973,0 3.853,-0.508 5.576,-1.503 l 0.487,-0.281 c 5.36,-3.095 7.203,-9.974 4.109,-15.334 z" /><path d="m 384.287,296.528 -20.992,-12.12 c -3.41,6.906 -7.266,13.548 -11.533,19.899 l 21.024,12.14 c 1.733,1.001 3.613,1.508 5.587,1.508 4.011,0 7.746,-2.152 9.751,-5.625 l 0.271,-0.468 c 1.5,-2.597 1.898,-5.623 1.122,-8.519 -0.776,-2.895 -2.633,-5.316 -5.23,-6.815 z" /><path d="m 384.289,119.604 c 2.596,-1.499 4.453,-3.919 5.229,-6.815 0.775,-2.896 0.377,-5.92 -1.124,-8.521 l -0.273,-0.473 c -2.001,-3.465 -5.735,-5.617 -9.747,-5.617 -1.973,0 -3.853,0.508 -5.587,1.509 l -21.025,12.139 c 4.267,6.35 8.123,12.993 11.533,19.899 z" /><path d="m 404.909,196.567 h -24.22 c 0.251,3.804 0.378,7.634 0.378,11.5 0,3.866 -0.127,7.696 -0.378,11.5 h 24.22 c 6.189,0 11.225,-5.036 11.225,-11.225 v -0.549 c 0,-6.19 -5.036,-11.226 -11.225,-11.226 z" /><path d="m 208.067,51.069 c -86.71,0 -157,70.29 -157,157 0,86.71 70.29,157 157,157 86.71,0 157,-70.29 157,-157 0,-86.71 -70.29,-157 -157,-157 z m 111.8,100.59 c 7.22,14.4 11.74,30.39 12.9,47.31 h -51.72 c -0.89,-7.57 -2.93,-14.78 -5.94,-21.47 z m -8.07,-13.82 -44.79,25.86 c -4.43,-5.94 -9.75,-11.18 -15.75,-15.54 l 25.85,-44.76 c 13.7,9.09 25.5,20.81 34.69,34.44 z m -95.73,-54.97 c 16.85,1.07 32.78,5.46 47.17,12.55 l -25.86,44.78 c -6.65,-2.89 -13.81,-4.84 -21.31,-5.65 z m -16,0 v 51.68 c -7.5,0.81 -14.66,2.76 -21.31,5.65 l -25.86,-44.78 c 14.39,-7.09 30.32,-11.48 47.17,-12.55 z m -61.04,20.53 25.85,44.76 c -6,4.36 -11.32,9.6 -15.76,15.54 l -44.78,-25.86 c 9.19,-13.63 20.99,-25.35 34.69,-34.44 z m -42.76,48.26 44.75,25.84 c -3,6.69 -5.04,13.9 -5.93,21.47 h -51.72 c 1.16,-16.92 5.68,-32.91 12.9,-47.31 z m -0.49,110.9 c -7.12,-14.5 -11.5,-30.59 -12.49,-47.59 h 51.65 c 0.76,7.65 2.7,14.96 5.63,21.73 z m 7.95,13.89 44.75,-25.84 c 4.44,6.14 9.79,11.57 15.87,16.08 l -25.85,44.78 c -13.78,-9.25 -25.62,-21.17 -34.77,-35.02 z m 96.34,55.9 c -17.07,-1.08 -33.21,-5.58 -47.74,-12.84 l 25.84,-44.76 c 6.82,3.04 14.18,5.08 21.9,5.92 z m -28.5,-124.74 c 0,-20.16 16.34,-36.5 36.5,-36.5 20.16,0 36.5,16.34 36.5,36.5 0,20.16 -16.34,36.5 -36.5,36.5 -20.16,0 -36.5,-16.34 -36.5,-36.5 z m 44.5,124.74 v -51.68 c 7.72,-0.84 15.08,-2.88 21.9,-5.92 l 25.84,44.76 c -14.53,7.26 -30.67,11.76 -47.74,12.84 z m 61.57,-20.88 -25.85,-44.78 c 6.08,-4.51 11.43,-9.94 15.87,-16.08 l 44.75,25.84 c -9.15,13.85 -20.99,25.77 -34.77,35.02 z m -2.07,-74.77 c 2.93,-6.77 4.87,-14.08 5.63,-21.73 h 51.65 c -0.99,17 -5.37,33.09 -12.49,47.59 z" /></g>
</svg>
