<svg fill="#e5e5e5" width="80" height="80" version="1.1" xmlns="http://www.w3.org/2000/svg" xmlns:xlink="http://www.w3.org/1999/xlink" viewBox="0 0 416.134 416.134" xml:space="preserve" stroke="#163152"><g id="SVGRepo_bgCarrier" stroke-width="0"/><g id="SVGRepo_tracerCarrier" stroke-linecap="round" stroke-linejoin="round"/><g id="SVGRepo_iconCarrier"> <g> <g> <g> <path d="M35.067,208.066c0-3.866,0.127-7.696,0.378-11.5h-24.22C5.036,196.566,0,201.603,0,207.792v0.55 c0,6.189,5.036,11.224,11.225,11.224h24.22C35.194,215.763,35.067,211.932,35.067,208.066z"/> <path d="M316.448,43.347c3.094-5.36,1.251-12.239-4.1-15.328l-0.486-0.28c-1.733-1.001-3.613-1.509-5.587-1.509 c-4.011,0-7.746,2.152-9.746,5.617l-12.12,20.992c6.907,3.409,13.549,7.264,19.9,11.532L316.448,43.347z"/> <path d="M219.567,35.445v-24.22c0-6.19-5.036-11.225-11.225-11.225h-0.55c-6.189,0-11.225,5.035-11.225,11.225v24.22 c3.804-0.251,7.634-0.378,11.5-0.378C211.933,35.067,215.763,35.194,219.567,35.445z"/> <path d="M111.826,64.37c6.351-4.267,12.993-8.123,19.9-11.533l-12.12-20.991c-2.001-3.465-5.735-5.617-9.747-5.617 c-1.974,0-3.853,0.508-5.603,1.518l-0.46,0.266c-5.36,3.094-7.204,9.973-4.109,15.334L111.826,64.37z"/> <path d="M31.847,119.604l20.992,12.121c3.41-6.907,7.266-13.548,11.533-19.899L43.347,99.687 c-1.733-1.001-3.613-1.509-5.587-1.509c-4.011,0-7.746,2.152-9.744,5.613l-0.277,0.48c-1.499,2.597-1.898,5.622-1.122,8.518 C27.393,115.684,29.25,118.105,31.847,119.604z"/> <path d="M31.846,296.529c-2.596,1.499-4.453,3.92-5.229,6.816s-0.378,5.921,1.117,8.51l0.279,0.483 c2.001,3.465,5.736,5.617,9.748,5.617c1.974,0,3.854-0.507,5.586-1.508l21.024-12.138c-4.267-6.351-8.123-12.993-11.533-19.9 L31.846,296.529z"/> <path d="M99.686,372.786c-3.095,5.36-1.252,12.239,4.113,15.337l0.472,0.272c1.733,1.001,3.613,1.509,5.587,1.509 c4.012,0,7.747-2.153,9.747-5.618l12.119-20.991c-6.906-3.41-13.549-7.265-19.9-11.533L99.686,372.786z"/> <path d="M196.567,380.688v24.22c0,6.19,5.036,11.226,11.225,11.226h0.55c6.189,0,11.225-5.037,11.225-11.226v-24.22 c-3.804,0.251-7.634,0.378-11.5,0.378C204.201,381.066,200.371,380.939,196.567,380.688z"/> <path d="M304.309,351.762c-6.351,4.267-12.993,8.123-19.9,11.532l12.121,20.993c2,3.465,5.734,5.617,9.746,5.617 c1.973,0,3.853-0.508,5.576-1.503l0.487-0.281c5.36-3.095,7.203-9.974,4.109-15.334L304.309,351.762z"/> <path d="M384.287,296.528l-20.992-12.12c-3.41,6.906-7.266,13.548-11.533,19.899l21.024,12.14 c1.733,1.001,3.613,1.508,5.587,1.508c4.011,0,7.746-2.152,9.751-5.625l0.271-0.468c1.5-2.597,1.898-5.623,1.122-8.519 C388.741,300.448,386.884,298.027,384.287,296.528z"/> <path d="M384.289,119.604c2.596-1.499,4.453-3.919,5.229-6.815c0.775-2.896,0.377-5.92-1.124-8.521l-0.273-0.473 c-2.001-3.465-5.735-5.617-9.747-5.617c-1.973,0-3.853,0.508-5.587,1.509l-21.025,12.139c4.267,6.35,8.123,12.993,11.533,19.899 L384.289,119.604z"/> <path d="M404.909,196.567h-24.22c0.251,3.804,0.378,7.634,0.378,11.5c0,3.866-0.127,7.696-0.378,11.5h24.22 c6.189,0,11.225-5.036,11.225-11.225v-0.549C416.134,201.603,411.098,196.567,404.909,196.567z"/> <path d="M208.067,51.069c-86.71,0-157,70.29-157,157s70.29,157,157,157s157-70.29,157-157S294.777,51.069,208.067,51.069z M319.867,151.659c7.22,14.4,11.74,30.39,12.9,47.31h-51.72c-0.89-7.57-2.93-14.78-5.94-21.47L319.867,151.659z M311.797,137.839 l-44.79,25.86c-4.43-5.94-9.75-11.18-15.75-15.54l25.85-44.76C290.807,112.489,302.607,124.209,311.797,137.839z M216.067,82.869 c16.85,1.07,32.78,5.46,47.17,12.55l-25.86,44.78c-6.65-2.89-13.81-4.84-21.31-5.65V82.869z M200.067,82.869v51.68 c-7.5,0.81-14.66,2.76-21.31,5.65l-25.86-44.78C167.287,88.329,183.217,83.939,200.067,82.869z M139.027,103.399l25.85,44.76 c-6,4.36-11.32,9.6-15.76,15.54l-44.78-25.86C113.527,124.209,125.327,112.489,139.027,103.399z M96.267,151.659l44.75,25.84 c-3,6.69-5.04,13.9-5.93,21.47h-51.72C84.527,182.049,89.047,166.059,96.267,151.659z M95.777,262.559 c-7.12-14.5-11.5-30.59-12.49-47.59h51.65c0.76,7.65,2.7,14.96,5.63,21.73L95.777,262.559z M103.727,276.449l44.75-25.84 c4.44,6.14,9.79,11.57,15.87,16.08l-25.85,44.78C124.717,302.219,112.877,290.299,103.727,276.449z M200.067,332.349 c-17.07-1.08-33.21-5.58-47.74-12.84l25.84-44.76c6.82,3.04,14.18,5.08,21.9,5.92V332.349z M171.567,207.609 c0-20.16,16.34-36.5,36.5-36.5c20.16,0,36.5,16.34,36.5,36.5c0,20.16-16.34,36.5-36.5,36.5 C187.907,244.109,171.567,227.769,171.567,207.609z M216.067,332.349v-51.68c7.72-0.84,15.08-2.88,21.9-5.92l25.84,44.76 C249.277,326.769,233.137,331.269,216.067,332.349z M277.637,311.469l-25.85-44.78c6.08-4.51,11.43-9.94,15.87-16.08l44.75,25.84 C303.257,290.299,291.417,302.219,277.637,311.469z M275.567,236.699c2.93-6.77,4.87-14.08,5.63-21.73h51.65 c-0.99,17-5.37,33.09-12.49,47.59L275.567,236.699z"/> </g> </g> </g> </g></svg>