<svg width="24" height="24" fill="#000000" xmlns="http://www.w3.org/2000/svg"
    <path
       d="M 20.503966,3.4845932 C 18.341084,1.3317325 15.353251,0 12.052644,0 5.452233,0 0.1005059,5.3261296 0.1005059,11.896756 c 0,2.186475 0.59258161,4.234493 1.6257801,5.995198 L 1.695732,17.835934 0,24 6.3350748,22.345738 c 1.6490977,0.911564 3.6165968,1.447779 5.7103322,1.447779 h 0.0049 c 6.60041,-0.0024 11.949724,-5.329331 11.949724,-11.899158 0,-3.2837128 -1.336323,-6.2561015 -3.496794,-8.4089623 v 0 z M 12.050231,21.783911 h -0.004 c 0,0 -8.05e-4,0 -8.05e-4,0 -1.864581,0 -3.6093604,-0.512206 -5.0992571,-1.402962 l 0.045026,0.02481 -0.3626433,-0.213686 -3.7589129,0.981993 1.0026448,-3.648659 -0.2363893,-0.373749 c -0.952794,-1.490196 -1.5188421,-3.306122 -1.5188421,-5.254101 0,-5.4597829 4.4471759,-9.8863528 9.9323749,-9.8863528 5.4852,0 9.932375,4.4265699 9.932375,9.8863528 0,5.459783 -4.446372,9.886354 -9.932375,9.886354 v 0 z m 5.448213,-7.403761 c -0.298301,-0.14886 -1.766488,-0.866747 -2.039863,-0.966786 -0.27418,-0.09924 -0.473583,-0.14806 -0.672987,0.149659 -0.197795,0.296919 -0.770276,0.965986 -0.944753,1.164466 -0.173674,0.199279 -0.348956,0.223289 -0.647257,0.07523 -0.924652,-0.37295 -1.71905,-0.869949 -2.409725,-1.482193 l 0.0081,0.0072 c -0.642491,-0.59225 -1.1932628,-1.270121 -1.6379,-2.01762 L 9.131546,11.268486 C 8.9578719,10.971566 9.113053,10.810702 9.2618011,10.662642 9.3960767,10.529789 9.560906,10.315303 9.7096546,10.142434 9.8270456,9.9991773 9.9275506,9.8351113 10.003935,9.6590413 l 0.0049,-0.013605 c 0.03458,-0.069628 0.05468,-0.1504601 0.05468,-0.2368948 0,-0.1048419 -0.02975,-0.2024809 -0.08121,-0.2857141 l 0.0016,0.0024 C 9.9082536,8.9763893 9.3116519,7.5134041 9.0632019,6.9179661 8.8203801,6.3385344 8.5735382,6.4177661 8.3910198,6.4081623 c -0.1736738,-0.008 -0.3730772,-0.0096 -0.5724804,-0.0096 -0.3175984,0.008 -0.5998184,0.1504601 -0.7943973,0.3705482 l -8.041e-4,0.0016 C 6.3784935,7.3797564 5.9780787,8.2385 5.9780787,9.1900805 c 0,0.020809 0,0.042417 8.041e-4,0.063225 v -0.0032 c 0.10533,1.1740685 0.547555,2.2280895 1.2277776,3.0868335 l -0.00964,-0.012 c 1.2896894,1.903961 3.0087386,3.426969 5.0260896,4.452979 l 0.07558,0.03442 c 0.440616,0.19848 1.005057,0.410564 1.582361,0.592238 l 0.119803,0.03281 c 0.355388,0.112045 0.764647,0.176871 1.189184,0.176871 0.243625,0 0.483231,-0.02161 0.714796,-0.06242 l -0.02492,0.0032 c 0.859524,-0.178472 1.572713,-0.694678 2.007701,-1.39976 l 0.0073,-0.0136 c 0.132668,-0.292917 0.209856,-0.634653 0.209856,-0.993997 0,-0.148059 -0.01287,-0.292917 -0.03779,-0.433773 l 0.0024,0.01521 c -0.07397,-0.124049 -0.273375,-0.197679 -0.57248,-0.347339 z"
       style="stroke-width:0.802181"
       id="path184" />
</svg>
