<svg xmlns:svg="http://www.w3.org/2000/svg" width="24" height="24" viewBox="0 0 24 24" fill="#ffffff">
  <path
     d="m 23.938083,4.4005854 c -0.10819,-0.558971 -0.349828,-1.070494 -0.687282,-1.493068 -0.07115,-0.09207 -0.145499,-0.174527 -0.226079,-0.256984 -0.597892,-0.616289 -1.43705,-1.000733 -2.353788,-1.000733 H 3.3291173 c -0.916733,0 -1.7528945,0.384444 -2.35359517,1.000733 -0.080394,0.08246 -0.15473839,0.164913 -0.22607998,0.256984 C 0.41180213,3.3300424 0.1701591,3.8416144 0.06497033,4.4005854 0.02176077,4.6163204 0,4.8392644 0,5.0646624 V 17.557365 c 0,0.479255 0.09909341,0.939961 0.27580901,1.35599 0.16392529,0.397139 0.40561025,0.756488 0.69966048,1.057803 0.0745345,0.07626 0.14854651,0.146354 0.22931291,0.216072 0.5759068,0.489209 1.3192955,0.78466 2.12433,0.78466 H 20.670929 c 0.805316,0 1.551941,-0.295451 2.124522,-0.787738 0.08053,-0.06664 0.154923,-0.136737 0.229266,-0.212994 0.293907,-0.301315 0.53555,-0.660664 0.702845,-1.057803 v -0.0029 C 23.904235,18.494421 24,18.036798 24,17.557586 V 5.0648224 c 4.8e-5,-0.225397 -0.02136,-0.448346 -0.06192,-0.664077 z M 2.1801183,3.8859404 c 0.2974206,-0.304728 0.69684,-0.489209 1.148999,-0.489209 H 20.670934 c 0.452159,0 0.855096,0.184481 1.149004,0.489209 0.05259,0.05428 0.102141,0.114768 0.145873,0.174868 l -9.089409,8.1252336 c -0.250686,0.225349 -0.560342,0.336655 -0.876376,0.336655 -0.312841,0 -0.622312,-0.111306 -0.876328,-0.336655 L 2.0377578,4.0573454 c 0.040217,-0.0601 0.089763,-0.117121 0.1423605,-0.171405 z M 1.7031616,17.557365 V 5.8650954 L 8.2808608,11.750776 1.70649,17.630204 c -0.00331,-0.0223 -0.00331,-0.04738 -0.00331,-0.07284 z M 20.670934,19.224624 H 3.3291173 c -0.2944207,0 -0.569906,-0.07938 -0.8050345,-0.218858 l 6.9364868,-6.200314 0.6475784,0.577822 c 0.541922,0.48301 1.220064,0.727639 1.891878,0.727639 0.675285,0 1.353381,-0.244629 1.895255,-0.727639 l 0.647255,-0.577822 6.93376,6.200314 c -0.235456,0.139479 -0.510937,0.218858 -0.805362,0.218858 z m 1.625956,-1.667259 c 0,0.02542 0,0.05053 -0.0033,0.07284 l -6.574324,-5.876014 6.577515,-5.8859726 z" />
</svg>
