<?xml version="1.0" standalone="no"?>
<!DOCTYPE svg PUBLIC "-//W3C//DTD SVG 20010904//EN"
 "http://www.w3.org/TR/2001/REC-SVG-20010904/DTD/svg10.dtd">
<svg version="1.0" xmlns="http://www.w3.org/2000/svg"
 width="700.000000pt" height="700.000000pt" viewBox="0 0 700.000000 700.000000"
 preserveAspectRatio="xMidYMid meet">
<metadata>
Created by potrace 1.14, written by Peter Selinger 2001-2017
</metadata>
<g transform="translate(0.000000,700.000000) scale(0.100000,-0.100000)"
fill="#000000" stroke="none">
<path d="M4029 6985 c-14 -8 -34 -27 -44 -42 -17 -25 -18 -62 -19 -510 l0
-482 -20 29 c-37 51 -102 65 -157 33 -36 -21 -23 9 -429 -988 -177 -434 -331
-809 -341 -832 -10 -23 -19 -48 -19 -55 0 -8 -4 -18 -8 -24 -5 -5 -21 -40 -37
-79 -15 -38 -34 -83 -40 -100 -7 -16 -47 -113 -88 -215 -100 -243 -647 -1583
-744 -1820 -93 -227 -105 -259 -98 -270 3 -5 36 12 73 37 481 332 830 620
1202 993 155 155 217 220 355 374 197 219 563 713 742 1002 40 64 225 377 248
419 l27 50 -40 85 c-22 47 -62 135 -90 195 -27 61 -70 153 -95 205 -24 52 -54
117 -66 143 -12 27 -45 96 -73 155 -27 59 -54 118 -59 131 -6 14 -9 333 -9
753 0 656 -1 733 -16 764 -9 19 -26 40 -38 46 -33 18 -89 19 -117 3z"/>
<path d="M3553 6515 c-23 -16 -43 -48 -388 -630 -114 -192 -270 -453 -345
-580 -75 -126 -230 -387 -345 -580 -114 -192 -233 -393 -265 -445 -31 -52
-124 -207 -205 -345 -158 -266 -321 -542 -505 -850 -63 -104 -119 -199 -125
-210 -26 -48 -369 -623 -386 -647 -11 -15 -19 -32 -19 -37 0 -5 -7 -17 -16
-26 -23 -23 -23 -95 0 -129 33 -51 44 -52 493 -52 l417 1 52 125 c29 69 57
136 62 150 6 14 77 187 157 385 81 198 152 374 160 390 7 17 72 176 145 355
72 179 138 339 145 355 7 17 34 82 59 145 26 63 51 124 56 135 5 11 84 205
175 430 92 226 172 424 180 440 7 17 28 66 45 110 17 44 38 94 45 110 8 17 28
66 45 110 18 44 36 89 40 100 5 11 21 49 35 85 15 36 33 79 41 97 8 17 14 34
14 37 0 3 9 25 19 49 11 23 44 103 74 177 96 237 129 313 146 339 23 37 82 89
127 113 22 11 41 24 44 28 4 7 5 126 1 194 -1 10 -16 33 -35 52 -28 28 -41 34
-78 34 -24 0 -53 -7 -65 -15z"/>
<path d="M4651 4068 c-90 -150 -282 -444 -384 -588 -76 -107 -289 -384 -306
-400 -3 -3 -32 -36 -63 -75 -31 -38 -67 -82 -80 -96 -13 -14 -48 -55 -78 -90
-85 -98 -478 -493 -593 -595 -157 -141 -181 -162 -316 -273 -123 -101 -419
-326 -513 -389 -26 -18 -49 -36 -52 -40 -2 -4 405 -7 905 -6 635 0 909 -3 912
-10 1 -6 3 -31 2 -56 l-1 -45 -1479 -5 c-1098 -4 -1485 -8 -1500 -17 -16 -9
-309 -477 -324 -518 -2 -5 -10 -18 -19 -27 -13 -15 -13 -18 -1 -19 43 -3 5187
-4 5200 -1 16 4 68 144 75 199 1 12 5 36 10 55 4 18 8 44 10 56 1 13 5 27 9
30 4 4 118 7 254 8 275 1 289 4 317 71 18 42 18 69 -2 102 -35 59 39 56 -1189
61 l-1129 5 0 55 0 55 754 2 c415 1 768 2 784 2 18 1 40 13 62 35 55 55 52 69
-63 316 -20 41 -46 98 -58 125 -13 28 -42 91 -65 140 -23 50 -71 153 -107 230
-36 77 -78 167 -93 200 -15 33 -69 148 -118 256 -89 193 -109 237 -211 453
-28 59 -51 110 -51 111 0 3 -53 118 -120 260 -49 104 -175 377 -211 455 -18
41 -41 90 -49 108 l-16 32 -103 -172z"/>
<path d="M578 530 c-18 -30 -35 -59 -37 -64 -2 -5 -30 -51 -62 -103 -33 -52
-59 -96 -59 -97 0 -2 -16 -30 -35 -62 -39 -64 -43 -95 -19 -143 33 -66 -145
-62 2387 -58 l2302 3 75 21 c209 58 373 155 525 307 84 84 201 234 191 244 -3
3 -1182 6 -2620 6 l-2614 1 -34 -55z"/>
</g>
</svg>
