<?xml version="1.0" standalone="no"?>
<!DOCTYPE svg PUBLIC "-//W3C//DTD SVG 20010904//EN"
 "http://www.w3.org/TR/2001/REC-SVG-20010904/DTD/svg10.dtd">
<svg version="1.0" xmlns="http://www.w3.org/2000/svg"
 width="408.000000pt" height="408.000000pt" viewBox="0 0 408.000000 408.000000"
 preserveAspectRatio="xMidYMid meet">
<metadata>
Created by potrace 1.14, written by Peter Selinger 2001-2017
</metadata>
<g transform="translate(0.000000,408.000000) scale(0.100000,-0.100000)"
fill="#000000" stroke="none">
<path d="M1158 3153 c-67 -34 -76 -36 -182 -37 -124 -1 -144 -8 -265 -94 -84
-60 -130 -72 -268 -72 -130 0 -165 -12 -224 -77 -76 -84 -109 -190 -109 -348
0 -148 23 -231 94 -338 l36 -54 -34 -69 c-63 -128 -81 -247 -50 -329 9 -22 17
-78 19 -125 6 -178 98 -353 223 -427 34 -20 59 -26 117 -28 70 -3 76 -5 122
-43 57 -48 126 -81 169 -82 19 0 38 -8 50 -21 29 -33 114 -69 161 -69 24 0 71
9 106 21 l64 21 38 -26 c68 -46 133 -59 279 -54 126 4 134 5 212 41 45 20 93
37 107 37 14 0 54 -13 89 -30 34 -16 76 -30 91 -30 33 0 94 24 119 47 16 14
25 15 71 5 175 -39 358 -13 437 63 25 24 27 24 74 10 102 -31 186 -14 255 49
32 30 58 45 86 49 101 16 259 128 339 240 91 128 112 212 76 314 -21 61 -21
63 -3 87 18 24 18 24 178 19 200 -5 258 6 263 52 5 44 -14 98 -53 150 l-35 45
42 -30 c40 -29 70 -36 102 -24 11 4 16 19 16 50 0 125 -107 262 -264 339 -135
66 -187 78 -356 80 -116 2 -152 6 -179 20 -49 25 -119 98 -178 185 -98 145
-170 190 -323 199 -87 6 -100 9 -155 43 -38 24 -88 44 -135 54 -41 9 -101 30
-133 46 -104 52 -272 117 -373 144 -94 25 -112 27 -372 29 l-273 3 -71 -35z
m583 1 c40 -6 47 -12 79 -62 23 -35 83 -97 171 -173 266 -232 302 -313 265
-610 -21 -163 -22 -166 -49 -174 -12 -3 -53 -20 -91 -37 -56 -25 -86 -32 -163
-36 l-93 -5 45 85 c134 253 105 504 -82 719 -88 99 -132 135 -245 195 -57 31
-111 63 -122 72 -18 16 -16 17 25 23 63 9 209 10 260 3z m-566 -41 c-46 -112
-25 -210 64 -293 27 -25 120 -88 207 -140 180 -108 289 -204 325 -285 26 -59
34 -144 24 -256 l-7 -84 -81 -35 c-56 -23 -102 -35 -147 -38 l-65 -4 21 23
c73 81 115 273 82 382 -19 62 -81 120 -198 183 -225 122 -381 252 -395 327 -4
21 -4 53 -1 72 8 42 65 118 91 124 11 2 31 12 44 22 30 24 45 24 36 2z m1306
-214 c15 -11 48 -29 72 -39 39 -17 46 -25 58 -67 29 -104 1 -410 -56 -601 -15
-49 -20 -55 -63 -74 -64 -28 -137 -27 -188 2 l-40 23 38 71 c67 126 91 215 92
346 1 129 -13 193 -68 320 l-33 77 80 -19 c44 -10 92 -27 108 -39z m-1839 -53
c-5 -132 6 -167 71 -228 65 -62 108 -80 257 -113 69 -15 148 -37 177 -50 124
-56 205 -196 247 -429 7 -37 6 -38 -16 -32 -13 3 -54 6 -91 6 l-69 0 7 63 c8
74 -7 148 -39 197 -36 54 -123 99 -313 162 -202 67 -261 96 -314 156 -51 59
-73 126 -67 211 7 98 24 123 94 142 33 9 59 17 59 18 0 0 -1 -46 -3 -103z
m2173 -36 c22 -11 56 -36 75 -56 l35 -35 -1 -92 c-1 -51 -9 -132 -18 -182 -17
-90 -63 -275 -70 -283 -14 -14 -94 -21 -168 -16 l-86 6 44 87 c87 168 134 376
119 524 -7 77 -1 82 70 47z m-2573 -287 c-3 -98 16 -185 53 -250 47 -79 174
-122 365 -123 176 -1 275 -32 399 -126 l64 -48 -29 -8 c-16 -5 -103 -14 -194
-20 -154 -10 -172 -10 -270 10 -266 54 -436 210 -484 445 -19 90 -20 147 -5
235 l11 64 47 -46 46 -46 -3 -87z m2925 -74 c47 -37 16 -116 -81 -206 -61 -56
-74 -64 -99 -59 -16 3 -42 6 -58 6 l-28 0 39 79 c38 77 67 154 89 238 l12 43
57 -45 c31 -25 63 -50 69 -56z m-152 -313 c13 -9 34 -35 46 -58 34 -67 122
-143 222 -193 49 -25 95 -45 103 -45 18 0 18 1 -5 -43 -19 -37 -19 -37 6 -108
22 -63 23 -77 13 -118 -17 -72 -66 -149 -140 -221 -81 -80 -170 -129 -244
-137 -48 -5 -58 -10 -90 -48 -58 -70 -127 -80 -246 -38 l-48 17 -27 -32 c-39
-47 -94 -71 -185 -83 -87 -10 -171 -2 -235 25 -50 21 -49 21 -95 -20 -55 -49
-97 -51 -168 -5 -47 30 -58 33 -99 27 -26 -3 -74 -19 -107 -35 -85 -41 -136
-53 -235 -53 -103 -1 -180 19 -241 63 l-44 32 -45 -18 c-133 -51 -218 -39
-256 35 -11 22 -19 26 -39 23 -58 -11 -107 11 -245 112 -22 17 -41 23 -54 19
-34 -11 -94 -6 -125 10 -109 56 -214 297 -182 417 9 34 8 42 -11 68 -42 57
-33 163 25 294 l25 57 68 -43 c115 -73 217 -107 363 -122 92 -9 324 11 422 36
90 23 155 26 263 10 138 -21 198 -15 299 28 85 36 99 39 217 44 118 4 132 7
207 41 91 41 118 44 172 16 54 -28 123 -26 211 6 66 24 82 26 164 20 90 -6
166 6 211 33 25 15 97 8 129 -13z"/>
</g>
</svg>
