<svg xmlns="http://www.w3.org/2000/svg" viewBox="0 0 18 18" width="18" height="18" fill="#ffffff">
  <path d="m 12.847624,1.1784917 a 9.1764113,9.00996 0 0 0 -6.8160228,0 C 3.8490509,2.0377925 2.1159443,3.6865496 1.2116678,5.760724 a 8.3691371,8.217329 0 0 0 0,6.479679 c 0.9042765,2.074173 2.6373831,3.721873 4.8199334,4.581174 a 9.1764113,9.00996 0 0 0 7.0908628,-0.113234 c 0.610037,-0.263504 0.348131,-1.113281 -0.29963,-1.275192 a 7.1738542,7.0437272 0 0 1 -0.89673,-0.287846 6.890392,6.7654069 0 0 1 -3.7873988,-3.600174 6.5756736,6.4563972 0 0 1 0,-5.0901935 6.890392,6.7654069 0 0 1 3.7873988,-3.6001743 c 0.293163,-0.1164077 0.592792,-0.2116504 0.89673,-0.2878446 0.647761,-0.1619125 0.909667,-1.0116892 0.29963,-1.2751939 a 8.9673176,8.8046591 0 0 0 -0.27484,-0.113233 z"></path>
</svg>
